<?xml version="1.0" encoding="UTF-8"?><svg id="main" xmlns="http://www.w3.org/2000/svg" viewBox="0 0 557.24 554.76"><defs><style>.cls-1{fill:#2e2e2e;}</style></defs><path class="cls-1" d="M556.44,0c-.26.79.8,1.74.8,2v163.53c0,.52-1.61,1.6-2.44.89l-96.18-36.16v-31.26l-1.2-1.2H172.38v375.97c-6.52-1.08-11.96-6.24-17.52-9.52-26.83-15.79-54.37-30.58-80.3-47.8V99l-1.2-1.2H0V0h556.44Z"/><path class="cls-1" d="M333.54,159.13l204.89,75.72.37,180.81-.8,1.61c-70.56,42.31-140.56,85.51-210.81,128.32-4.91,2.99-9.71,6.9-14.83,9.17l-94.14-55.07c-.46-8.77.13-17.58-.1-26.35-1.22-46.16.22-92.6,0-138.69-.03-5.6-1.58-11.19-.04-17.2l96.21,37.28v82.57l1.87,1.1,125.2-74.45.3-61.21-211.56-77.87v-80.97l1.2-1.2h101.02l1.2,1.2v15.23Z"/></svg>