<?xml version="1.0" encoding="UTF-8"?><svg id="Layer_1" xmlns="http://www.w3.org/2000/svg" viewBox="0 0 939.52 895.06"><defs><style>.cls-1{fill:#302e2d;}</style></defs><path class="cls-1" d="M739.17,491.68c0-.35-2.37-1.17-2.38-4.75,0-.44,3.33-1.03,3.57-2.38.13-.76-3.56-4.46-3.57-4.75,0-.44,2.38-1.93,2.38-2.38-.02-3.42-2.36-4.89-2.38-8.32,0-.5,2.39-1.33,2.38-3.57,0-.45-2.37-1.92-2.38-2.38,0-.84,2.42.69,2.38-3.57,0-.35-2.34-1.16-2.38-4.75,0-.5,2.4-1.33,2.38-3.57,0-.3-3.7-3.98-3.57-4.75.23-1.37,3.49-1.89,3.57-2.38.53-3.68-3.65-5.3-3.57-5.94.16-1.29,3.57-1.96,3.57-2.38-.02-1.86-3.56-5-3.57-5.94,0-.35,2.4-1.18,2.38-4.75,0-.21-2.38-3.35-2.38-3.57,0-.49,3.57-3.07,3.57-3.57,0-1.02-3.57-4.46-3.57-4.75,0-1.15,3.56-2,3.57-2.38,0-.35-3.57-5.6-3.57-5.94,0-1.15,3.57-2,3.57-2.38,0-1.84-3.57-5.02-3.57-5.94,0-1.15,3.56-2,3.57-2.38,0-2.57-2.36-10.96-2.38-15.45-.02-4.24-1.18-11.47-1.19-15.45,0-.32,2.39-1.36,2.38-5.94,0-.5-2.37-1.31-2.38-3.57,0-.37,3.57-1.24,3.57-2.38,0-2.25-2.38-3.06-2.38-3.57-.02-5.44,2.38-15.6,2.38-17.83,0-1.02-3.56-4.46-3.57-4.75,0-1.33,3.57-1.18,3.57-3.57,0-.35-3.57-5.6-3.57-5.94,0-.5,2.37-1.31,2.38-3.57,0-.21-2.38-3.35-2.38-3.57,0-1.32,3.48-1.16,3.57-3.57.01-.3-3.57-3.72-3.57-4.75,0-2.26,2.37-2.17,2.38-5.94,0-.21-2.38-3.35-2.38-3.57,0-.5,3.56-3.07,3.57-3.57,0-.5-3.57-3.07-3.57-3.57,0-.5,3.56-3.07,3.57-3.57,0-.21-2.38-3.35-2.38-3.57,0-3.59,2.38-4.4,2.38-4.75.01-10.16-2.3-23.58-2.38-34.46,0-.44,2.38-1.94,2.38-2.38,0-.53-3.54-5.06-3.57-7.13,0-.58,3.52-.4,3.57-3.57,0-.35-3.54-3.19-3.57-5.94,0-.36,3.57-1.24,3.57-2.38,0-.3-3.56-3.73-3.57-4.75,0-1.32,3.52-1.17,3.57-3.57.02-.93-3.74-4.29-3.57-5.94.18-1.64,3.57-1.08,3.57-3.57,0-.35-3.56-5.6-3.57-5.94,0-1.32,3.52-1.17,3.57-3.57.02-.87-3.56-4.11-3.57-5.94,0-1.14,3.57-2.01,3.57-2.38,0-.35-3.56-5.6-3.57-5.94,0-1.33,3.58-1.19,3.57-3.57,0-1.03-3.56-4.46-3.57-4.75-.01-1.33,3.59-1.19,3.57-3.57,0-.35-3.55-5.57-3.57-5.94-.05-1.38,3.89-.74,3.57-4.75-.04-.53-1.01-9.01-1.19-9.51-3.53-9.69-8.29-4.02-8.91-4.16-.76-.17-2.96-3.52-3.57-3.57-2.53-.2-5.6,3.57-5.94,3.57-8.73-.24-24.66-4.72-33.27-1.19-5.99-3.96-22.13,3.94-27.33-2.38-4.45,4.06-13.57,0-16.64,0-1.02,0-4.46,3.57-4.75,3.57-3.38,0-12.77-6.78-16.64,0-2.54-5.61-12.28-1.17-16.64-1.19-.5,0-1.31-2.37-3.57-2.38-1.01,0-4.46,3.57-4.75,3.57-.5,0-3.07-3.57-3.57-3.57-1.02,0-4.46,3.57-4.75,3.57-.53,0-4.46-1.19-9.51-1.19-.85,0,.71-2.38-3.57-2.38-.27,0-2.93,2.37-4.75,2.38-.35,0-1.17-2.39-4.75-2.38-.48,0-3.15,3.62-3.57,3.57-1.29-.16-1.96-3.57-2.38-3.57-3.29.02-5.07,2.37-7.13,2.38-.35,0-1.17-2.39-4.75-2.38-.5,0-1.31,2.37-3.57,2.38-.5,0-1.32-2.39-3.57-2.38-1.03,0-4.46,3.56-4.75,3.57-.49,0-3.07-3.57-3.57-3.57-1.07,0-4.46,3.6-4.75,3.57-1.67-.18-.78-4.1-4.75-3.57-.99.13-2.33,3.67-4.75,3.57-.53-.02-3.07-3.57-3.57-3.57-1.03,0-4.46,3.56-4.75,3.57-.44,0-1.94-2.38-2.38-2.38-3.59.04-4.41,2.37-4.75,2.38-.5,0-1.33-2.39-3.57-2.38-.21,0-3.35,2.38-3.57,2.38-.67,0-2.3-3.58-4.75-3.57-1.03,0-4.46,3.56-4.75,3.57-.49,0-3.07-3.57-3.57-3.57-1.02,0-4.46,3.56-4.75,3.57-.44,0-1.93-2.38-2.38-2.38-3.84,0-13.21,2.38-16.64,2.38-2.21,0-5.88,0-8.32,0-.5,0-3.06-3.56-3.57-3.57-1.01,0-4.46,3.57-4.75,3.57-2.25-.02-2.16-2.32-5.94-2.38-.44,0-1.94,2.38-2.38,2.38-.51,0-3.06-3.56-3.57-3.57-1-.01-4.46,3.57-4.75,3.57-.51,0-3.06-3.56-3.57-3.57-1.01,0-4.46,3.57-4.75,3.57-.51,0-3.06-3.56-3.57-3.57-2.67-.03-5.3.03-8.32,0-.49,0-3.07,3.57-3.57,3.57-.5,0-3.06-3.56-3.57-3.57-2.25-.02-2.18,2.41-5.94,2.38-.5,0-1.3-2.36-3.57-2.38-1.01,0-4.46,3.57-4.75,3.57-.51,0-3.06-3.56-3.57-3.57-1.01,0-4.46,3.57-4.75,3.57-.38,0-1.23-3.56-2.38-3.57-3.77-.02-3.68,2.39-5.94,2.38-.32,0-1.36-2.36-5.94-2.38-.5,0-1.32,2.38-3.57,2.38-.5,0-1.32-2.38-3.57-2.38-1.08,0-4.46,3.61-4.75,3.57-1.32-.2-1.95-3.57-2.38-3.57-6.21,0-13.28,3.15-19.01,0-2.04,3.5-11.2-.06-14.26,0-.51,0-3.06,3.56-3.57,3.57-.67,0-2.31-3.59-4.75-3.57-.51,0-3.06,3.56-3.57,3.57-.68,0-2.3-3.58-4.75-3.57-1.03,0-4.46,3.56-4.75,3.57-.5,0-3.07-3.57-3.57-3.57-1.02,0-4.46,3.57-4.75,3.57-.68,0-2.27-3.54-4.75-3.57-.3,0-3.75,3.58-4.75,3.57-.51,0-3.06-3.56-3.57-3.57-1.81,0-4.49,2.38-4.75,2.38-10.16,0-18.9-.07-28.52,0-.5,0-1.33-2.39-3.57-2.38-1.03,0-4.46,3.56-4.75,3.57-.49,0-3.08-3.57-3.57-3.57-2.27.03-4.5,6.05-7.13,1.19-16.81.99-30.23,2.33-45.16,0-.82,6.84-.6,7.11-5.94,2.38-5.7,7.6-.61,9.72-.59,12.48.01,2.67-3.46-.12-3.57,2.38-.01.27,2.42,2.95,2.38,4.75-.05,1.96-1.18,11.14-1.19,11.88-.04,4.49,2.37,7.85,2.38,8.32.06,2.86-4.97,13.26,0,19.01h-2.38c1.29,6.76-1.88,14.27,4.75,19.01-8.6.72-2.05,2.7-2.38,5.94-1.74,17.24-2.25,36.93-2.38,54.67,0,.21,2.38,3.35,2.38,3.57,0,1.15-3.56,2-3.57,2.38,0,2.06,2.4,5.32,2.38,8.32-.04,6.15.03,13.62,0,21.39,0,.89-2.37.3-2.38,1.19,0,1.98,2.38,3.96,2.38,5.94,0,.45-2.38,1.93-2.38,2.38,0,1.04,3.57,6.73,3.57,7.13,0,1.14-3.56,2.01-3.57,2.38,0,.27,2.38,4.49,2.38,4.75,0,7.74-2.38,21.05-2.38,27.33,0,7.29,0,18.08,0,24.96,0,3.83,5.41,14.03,1.19,20.2,2.07,8.22,1.14,16.74,0,26.14,2.5,17.98-.03,35.32,0,54.67,0,.21,2.38,3.35,2.38,3.57,0,.38-2.38-.46-2.38,4.75,0,5.14,0,11.83,0,19.01,0,.45,2.38,1.93,2.38,2.38,0,.53-6.05,3.14-1.19,8.32-3.71,8.68,1.56,22.4-2.38,30.9.8,2.89,2.37,12.12,2.38,15.45,0,.95-2.38-.36-2.38,2.38,0,.35,3.56,5.6,3.57,5.94,0,.44-2.38,1.93-2.38,2.38.01,3.9,2.38,6.75,2.38,7.13,0,.54-5.9,4.11,0,8.32-3.41,9.49.03,22.78,0,35.65,0,.45-2.37,1.93-2.38,2.38,0,.32,2.39,4.42,2.38,5.94,0,.85-2.34-.71-2.38,3.57-.05,5.79.06,12.85,0,17.83-.22,19,.74,38.11,0,57.04,8.2-6.28,3.82,3.12,10.1,2.97,2.53-.06,3.95-3.48,4.75-3.57,2.26-.25,3.92,3.47,4.75,3.57,2.26.24,3.97-3.55,4.75-3.57,2.8-.06,13.71,3.84,19.01,0,3.79,4.1,13.45-4.26,20.2,1.19.44-.69,7.77-2.37,8.32-2.38.48,0,3.08,3.57,3.57,3.57.35,0,5.6-3.56,5.94-3.57,5.54-.06,13.99,2.42,19.01,2.38,3.25-.03,5.78.03,9.51,0,1.04,0,10.37-2.36,13.07-2.38,3.06-.01,6.89.02,10.7,0,.69,0,10.57,2.38,11.88,2.38.32,0,2.89-2.37,5.94-2.38.69,0,10.7,2.38,11.88,2.38.35,0,1.17-2.37,4.75-2.38,1.09,0,12.32,2.38,13.07,2.38,1.02,0,4.46-3.56,4.75-3.57.5,0,3.07,3.57,3.57,3.57,2.67,0,9.94-2.38,14.26-2.38.32,0,1.36,2.37,5.94,2.38.45,0,1.93-2.38,2.38-2.38.32,0,1.36,2.37,5.94,2.38.5,0,1.32-2.38,3.57-2.38.32,0,1.36,2.37,5.94,2.38.27,0,2.94-2.38,4.75-2.38.5,0,1.31,2.37,3.57,2.38.5,0,1.32-2.38,3.57-2.38.5,0,3.07,3.56,3.57,3.57,1.84,0,5.02-3.57,5.94-3.57.45,0,1.93,2.38,2.38,2.38,3.58.01,12.83-2.39,15.45-2.38,1.28,0,11.94,2.37,14.26,2.38,3.06,0,5.78-.01,9.51,0,.27,0,2.93-2.38,4.75-2.38.35,0,1.17,2.37,4.75,2.38.5,0,1.32-2.39,3.57-2.38.35,0,1.16,2.37,4.75,2.38.27,0,2.94-2.39,4.75-2.38.7,0,10.02,2.37,11.88,2.38,3.04.02,5.75-.03,9.51,0,.27,0,2.94-2.39,4.75-2.38.5,0,3.06,3.56,3.57,3.57,1.01,0,4.46-3.57,4.75-3.57.3,0,3.73,3.56,4.75,3.57,1.01,0,4.46-3.57,4.75-3.57.3,0,3.73,3.56,4.75,3.57.32,0,2.89-2.39,5.94-2.38.5,0,1.31,2.36,3.57,2.38.74,0,2.51-3.81,4.75-3.57.92.1,2.28,3.58,4.75,3.57,1.03,0,4.46-3.57,4.75-3.57.68,0,2.28,3.56,4.75,3.57,1.01,0,4.46-3.57,4.75-3.57.3,0,3.73,3.56,4.75,3.57.49,0,3.07-3.57,3.57-3.57.4,0,4.8,3.56,7.13,3.57.38,0,4.2-2.38,7.13-2.38.96,0-.37,2.37,2.38,2.38,1.22,0,1.09-3.19,3.57-3.57.29-.04,4.46,3.56,4.75,3.57,2.84,0,4.85-2.42,8.32-2.38.45,0,1.93,2.38,2.38,2.38.49,0,.77-3.93,3.57-3.57.29.04,1.86,4.09,4.75,3.57,1.39-.25,1.87-3.48,2.38-3.57.49-.08,1.97,3.6,5.94,3.57.3,0,3.73-3.56,4.75-3.57.35,0,3.22,3.58,5.94,3.57.59,0,.41-3.53,3.57-3.57.35,0,3.22,3.58,5.94,3.57.5,0,3.06-3.56,3.57-3.57.4,0,4.03,3.58,7.13,3.57.37,0,1.23-3.56,2.38-3.57.35,0,3.23,3.58,5.94,3.57,1.03,0,4.46-3.56,4.75-3.57.35,0,4.21,3.58,5.94,3.57.51,0,3.05-3.55,3.57-3.57.35,0,3.32,3.68,5.94,3.57.43-.02,1.09-3.41,2.38-3.57.6-.07,2.52,3.8,4.75,3.57.66-.07,4.19-4.76,4.75-4.75.38,0,4.58,4.85,5.94,4.75.57-.04,3.02-3.54,3.57-3.57,1.96-.07,2.44,2.48,7.13,2.38.5-.01,3.13-3.6,3.57-3.57.6.05,3.08,4.84,4.75,4.75.56-.03,2.99-3.52,3.57-3.57,2.16-.16,2.96,3.43,7.13,2.38,1.42-.36-1.78-5.74,7.13-1.19,2.12-1.17-3.79-7.33,4.75-2.38-7.39-10.68-.22-7.05.59-8.91,1.11-2.53-7.94-4.48,0-8.32-7-6.09,1.63-15.01-3.57-22.58,3.77-5.24.03-17.54,0-23.77,0-.5,2.39-1.32,2.38-3.57,0-.32-2.37-2.9-2.38-5.94,0-.85,2.39.7,2.38-3.57,0-.5-2.37-1.31-2.38-3.57,0-.85,2.38.7,2.38-3.57,0-.21-2.38-3.35-2.38-3.57,0-.5,2.38-1.32,2.38-3.57,0-.3-3.57-3.74-3.57-4.75,0-1.14,3.57-2.01,3.57-2.38,0-2.02-2.48-11.75-2.38-14.26.05-1.12,3.25-.04,3.57-1.19.18-.66-3.56-4.46-3.57-4.75-.03-3.76,2.33-3.62,2.38-5.94,0-.32-2.36-1.36-2.38-5.94,0-1.1,3.25-.04,3.57-1.19.18-.67-3.57-4.46-3.57-4.75.03-4.36,2.4-2.09,2.38-4.75,0-.27-2.38-2.94-2.38-4.75,0-1.24,3.66.68,3.57-2.38,0-.25-3.57-1.78-3.57-3.57,0-3.6,2.37-4.39,2.38-4.75.02-2.23-2.38-3.07-2.38-3.57,0-.64,2.3-7.91,2.38-11.88,0-.27-2.41-2.95-2.38-4.75.02-1.16,3.56-1.99,3.57-2.38,0-.35-2.42-1.19-2.38-4.75.02-1.53,2.31,2.77,2.38-2.38,0-.72-7.01-7,0-8.32-3.26-5.82-.04-13.11,0-17.83,0-.5-2.39-1.33-2.38-3.57,0-1.15,3.56-2,3.57-2.38,0-.3-3.57-3.74-3.57-4.75,0-2.69,2.37-.4,2.38-4.75ZM718.97,457.22c-.87,2.08,2.39,5.57,2.38,5.94-.25,8.73.08,18.03,0,27.33,0,.51-3.56,3.06-3.57,3.57,0,.35,3.57,5.6,3.57,5.94,0,.38-3.55,1.22-3.57,2.38-.01,1.02,3.57,6.73,3.57,7.13,0,.46-2.39,1.94-2.38,2.38.07,3.13,2.55,7.92,2.38,8.32-.56,1.28-2.57-1.97-3.57,0-1.52,3.01,2.39,5.62,2.38,5.94-.07,2.29-2.37,3.07-2.38,3.57-.06,3.04,2.38,5.62,2.38,5.94-.02,1.25-2.37,11.19-2.38,11.88-.02,3.58,2.38,4.4,2.38,4.75-.01,2.26-2.37,3.06-2.38,3.57-.02,4.59,2.38,5.62,2.38,5.94-.01,2.26-2.37,3.06-2.38,3.57-.01,3.05,2.38,5.62,2.38,5.94,0,.45-2.38,1.93-2.38,2.38-.01,4.58,2.38,5.62,2.38,5.94,0,2.74-2.38,1.42-2.38,2.38,0,4.58,2.38,5.62,2.38,5.94.05,25.73-1.86,57.85-2.38,86.75,0,.21,2.38,3.35,2.38,3.57,0,.32-2.15,1.44-2.38,5.94-.07,1.35.1,5.28,0,8.32-.01.35,3.09,3.57,2.38,5.94-.17.56-8.32,7.73-8.91,7.72-.5,0-3.11-3.59-3.57-3.57-2.88.17-5.6,3.58-5.94,3.57-2.42-.12-2.25-3.57-3.57-3.57-3.05,0-5.62,2.38-5.94,2.38-2.24,0-2.17-2.36-5.94-2.38-.49,0-3.07,3.56-3.57,3.57-.5,0-3.06-3.56-3.57-3.57-1.81,0-4.49,2.38-4.75,2.38-2.79,0-.77-2.38-3.57-2.38-1.81,0-6.74,3.64-7.13,3.57-.29-.06-2.11-4.6-3.57-4.75-.34-.04-4.12,3.57-5.94,3.57-1.34,0-12.79-2.36-15.45-2.38-1.06,0-4.46,3.61-4.75,3.57-1.31-.19-1.95-3.56-2.38-3.57-5.31-.03-7.87,3.54-8.32,3.57-1.07.07-2.03-3.56-2.38-3.57-3.08,0-5.62,2.38-5.94,2.38-.71,0-10.93-2.38-11.88-2.38-4.58,0-5.62,2.38-5.94,2.38-8.96,0-19.19-.03-28.52,0-.49,0-3.07-3.57-3.57-3.57-.35,0-4.19,3.56-5.94,3.57-.45,0-1.93-2.38-2.38-2.38-4.58,0-5.62,2.38-5.94,2.38-2.26,0-2.17-2.38-5.94-2.38-.3,0-3.99,3.7-4.75,3.57-1.35-.23-1.94-3.57-2.38-3.57-3.47,0-6.13,3.56-7.13,3.57-.68,0-2.3-3.57-4.75-3.57-1.08,0-4.46,3.61-4.75,3.57-1.31-.19-1.95-3.57-2.38-3.57-4.58,0-5.62,2.38-5.94,2.38-1.18,0-11.19-2.37-11.88-2.38-3.04-.02-5.62,2.38-5.94,2.38-2.25,0-3.06-2.37-3.57-2.38-3.57-.01-4.41,2.38-4.75,2.38-2.26-.02-3.07-2.37-3.57-2.38-3.58-.02-4.4,2.38-4.75,2.38-3.59,0-4.4-2.38-4.75-2.38-3.58-.01-4.4,2.38-4.75,2.38-2.79,0-12.38-2.38-15.45-2.38-.27,0-2.93,2.37-4.75,2.38-.36,0-1.18-2.41-4.75-2.38-.27,0-2.93,2.36-4.75,2.38-.52,0-.65-3.81-3.57-3.57-.57.05-3.06,3.57-3.57,3.57-3.77-.02-3.86-2.51-5.94-2.38-1.15.07-4.46,3.58-4.75,3.57-.59-.03-4.21-4.76-4.75-4.75-.51,0-3.03,3.54-3.57,3.57-2.41.1-3.82-3.46-4.75-3.57-2.24-.24-4.03,3.57-4.75,3.57-.51,0-3.06-3.56-3.57-3.57-1.01,0-4.46,3.57-4.75,3.57-3.17-.03-2.91-3.46-3.57-3.57-2.3-.37-5.6,3.57-5.94,3.57-2.26-.01-3.06-2.37-3.57-2.38-3.05-.02-5.62,2.38-5.94,2.38-.5,0-3.06-3.56-3.57-3.57-1.01,0-4.46,3.57-4.75,3.57-.51,0-3.03-3.54-3.57-3.57-2.39-.11-3.88,3.49-4.75,3.57-2.93.24-2.97-3.46-3.57-3.57-3.6-.64-5.17,3.57-5.94,3.57-.51,0-3.07-3.56-3.57-3.57-1.82,0-4.49,2.38-4.75,2.38-4.27,0-2.72-2.38-3.57-2.38-3.72,0-3.41,2.38-7.13,2.38-.45,0-1.93-2.38-2.38-2.38-1.02,0-4.46,3.56-4.75,3.57-.5,0-3.07-3.57-3.57-3.57-3.47,0-6.13,3.56-7.13,3.57-1.14,0-2.01-3.57-2.38-3.57-2.47,0-4.07,3.56-4.75,3.57-.49,0-3.07-3.57-3.57-3.57-1.02,0-4.46,3.56-4.75,3.57-2.45.01-4.08-3.57-4.75-3.57-1.03,0-4.46,3.56-4.75,3.57-2.45.02-4.08-3.57-4.75-3.57-.53,0-2.94,3.49-3.57,3.57-3.81.49-4.96-3.46-5.94-3.57-1.66-.18-4.93,3.56-5.94,3.57-1.14,0-2.01-3.57-2.38-3.57-2.08.01-4.32,3.55-7.13,3.57-.49,0-3.07-3.57-3.57-3.57-.3,0-3.72,3.56-4.75,3.57-.21,0-3.35-2.38-3.57-2.38-2.1.04-3.83,2.33-7.13,2.38-.52,0-.65-3.81-3.57-3.57-.58.05-3.04,3.56-3.57,3.57-3.57.06-4.39-2.38-4.75-2.38-2.98.04-12.17,2.33-15.45,2.38-.5,0-1.36-2.44-3.57-2.38-.52.01-3.06,3.57-3.57,3.57-.53,0-2.94-3.49-3.57-3.57-3.74-.48-5.27,3.63-5.94,3.57-1.53-.14-2.74-8.75-8.32,1.19-9.44-7.93.33-20.7-6.54-29.12,7.47-2.79-.37-9.22,0-14.26.37-5.11,3.21-2.06,3.57-3.57.78-3.25-3.55-6.73-3.57-7.13-.04-1.1,3.56-2.02,3.57-2.38,0-.35-3.55-5.55-3.57-5.94-.04-1.09,3.57-2.03,3.57-2.38-.05-3.44-3.49-7.67-3.57-9.51-.2-5.05,3.56-7.83,3.57-8.32.02-3.25-3.58-8.06-3.57-9.51,0-.45,3.56-7.87,3.57-8.32.03-4.19-3.61-6.73-3.57-7.13.13-1.26,3.57-1.97,3.57-2.38,0-3.9-2.38-6.75-2.38-7.13-.02-4.26,2.38-2.72,2.38-3.57-.02-3.52-2.35-12.59-2.38-16.64,0-.85,2.41.7,2.38-3.57-.03-4.12-1.17-10.86-1.19-15.45-.03-6.7-2.32-16.75-2.38-23.77,0-1.15,3.49-1.95,3.57-2.38.39-2.26-3.56-5.6-3.57-5.94-.01-1.84,2.38-10.05,2.38-10.7,0-3.95-2.38-10.14-2.38-15.45,0-.45,2.38-1.93,2.38-2.38,0-3.58-2.38-4.4-2.38-4.75,0-2.25,2.38-3.06,2.38-3.57,0-1.82-2.38-4.49-2.38-4.75,0-6.85,0-13.17,0-19.01,0-.5,3.57-3.07,3.57-3.57,0-.21-2.38-3.35-2.38-3.57,0-4.58,2.38-5.62,2.38-5.94,0-9.44,0-19.21,0-27.33,0-1.75-3.57-5.6-3.57-5.94,0-2.25,2.38-3.06,2.38-3.57,0-5.14-2.38-7.22-2.38-10.7,0-.45,3.57-5.6,3.57-8.32,0-2.68-3.56-9-3.57-9.51,0-1.14,3.57-2.01,3.57-2.38,0-.35-3.56-5.6-3.57-5.94-.02-3.58,2.38-4.4,2.38-4.75,0-.65-2.37-9.55-2.38-10.7-.01-3.58,2.38-4.4,2.38-4.75,0-2.25-2.38-3.06-2.38-3.57,0-3.59,2.38-4.39,2.38-4.75,0-2.25-2.38-3.07-2.38-3.57,0-3.59,2.38-4.4,2.38-4.75.04-23.01-.08-48.62,0-73.68,0-.27-2.4-2.95-2.38-4.75,0-.38,3.55-1.21,3.57-2.38,0-.35-3.57-5.6-3.57-5.94.04-2.27,2.37-3.06,2.38-3.57.04-3.57-2.38-4.39-2.38-4.75.01-1.16,3.56-2,3.57-2.38,0-.32-2.38-5.62-2.38-5.94.26-19.13-1.38-49.6,1.19-66.55.03-.21-2.42-3.36-2.38-3.57.12-.58,7.14-8.86,7.72-8.91.46-.04,2.95,3.48,3.57,3.57,4,.53,3.03-3.28,4.75-3.57,2.14-.35,4.05,3.57,4.75,3.57,2.75-.03,5.6-3.56,5.94-3.57.49,0,3.07,3.57,3.57,3.57,4.17-.02,6.73-3.57,7.13-3.57.5,0,3.07,3.57,3.57,3.57,1.02,0,4.46-3.57,4.75-3.57s3.73,3.56,4.75,3.57c.49,0,3.11-3.59,3.57-3.57,3.17.18,1,3.17,2.38,3.57,3.26.94,5.06-3.5,5.94-3.57,2.95-.22,2.98,3.49,3.57,3.57,3.72.51,6.73-3.56,7.13-3.57.49,0,3.06,3.56,3.57,3.57,2.72.03,5.6-3.58,5.94-3.57,2.49.12,2.01,3.37,3.57,3.57,3.83.47,6.73-3.6,7.13-3.57.41.04,1.21,3.55,2.38,3.57,4.14.05,6.73-3.57,7.13-3.57.3,0,2.07,3.51,4.75,3.57,3.01.06,7.52.01,9.51,0,5.8-.04,13.72-3.04,20.2,0,5.8-7.44,5.19-.27,7.13,0,2.34.33,5.6-3.56,5.94-3.57.48,0,3.08,3.57,3.57,3.57,2.78-.04,5.6-3.58,5.94-3.57,2.49.11,1.98,3.34,3.57,3.57,2.35.33,5.6-3.56,5.94-3.57.37,0,1.24,3.57,2.38,3.57,2.78-.01,5.6-3.6,5.94-3.57.45.04,1.07,3.4,2.38,3.57,3.74.47,5.3-3.65,5.94-3.57,1.31.17,1.91,3.5,2.38,3.57,3.75.53,5.04-3.5,5.94-3.57,2.95-.22,2.97,3.46,3.57,3.57,3.61.64,5.16-3.57,5.94-3.57.5,0,3.07,3.57,3.57,3.57,2.46,0,4.08-3.57,4.75-3.57.5,0,3.07,3.57,3.57,3.57,2.25,0,3.07-2.38,3.57-2.38,4.36,0,2.07,2.37,4.75,2.38.3,0,3.74-3.57,4.75-3.57,1.14,0,2.01,3.56,2.38,3.57,2.44,0,4.18-3.64,4.75-3.57,1.29.16,1.96,3.57,2.38,3.57,4.22,0,6.74-3.62,7.13-3.57,1.31.18,1.95,3.57,2.38,3.57,3.58,0,4.4-2.38,4.75-2.38,3.72,0,3.4,2.36,7.13,2.38.49,0,3.07-3.56,3.57-3.57.5,0,3.07,3.57,3.57,3.57.5,0,3.07-3.56,3.57-3.57.49,0,3.07,3.57,3.57,3.57,1.82,0,4.49-2.38,4.75-2.38,2.74,0,9.02,2.38,9.51,2.38,1.02,0,4.46-3.57,4.75-3.57.53,0,2.94,3.49,3.57,3.57,3.77.48,5.17-3.57,5.94-3.57.53,0,2.94,3.49,3.57,3.57,3.74.47,5.3-3.65,5.94-3.57,1.3.17,1.96,3.57,2.38,3.57,4.16,0,6.73-3.57,7.13-3.57,1.14,0,2.01,3.57,2.38,3.57,2.73,0,5.6-3.56,5.94-3.57.49,0,3.07,3.57,3.57,3.57,2.45-.01,4.18-3.63,4.75-3.57,1.3.15,1.91,3.5,2.38,3.57,3.74.54,5.04-3.5,5.94-3.57,2.95-.22,2.97,3.46,3.57,3.57,3.61.64,5.17-3.57,5.94-3.57.5,0,3.07,3.57,3.57,3.57,2.74-.02,5.6-3.56,5.94-3.57.49,0,3.07,3.57,3.57,3.57.35,0,5.6-3.56,5.94-3.57.49,0,3.07,3.57,3.57,3.57,1.03,0,4.46-3.56,4.75-3.57.44,0,1.94,2.38,2.38,2.38,4.69-.04,5.12-2.37,7.13-2.38.49,0,3.08,3.57,3.57,3.57.35,0,5.6-3.56,5.94-3.57.44,0,1.94,2.38,2.38,2.38,3.78-.03,3.69-2.37,5.94-2.38.49,0,3.07,3.57,3.57,3.57,1.35,0,2.93-6.2,5.94-1.19l16.64-2.38c3.95,6.75,7.1,0,8.32,0,2.23,0,2.16,2.33,5.94,2.38.46,0,3.16-3.62,3.57-3.57,1.29.16,1.95,3.56,2.38,3.57,4.15.07,6.49-2.47,8.32-2.38,1.22.06,1.92,3.48,2.38,3.57,3.56.68,5.17-3.57,5.94-3.57.51,0,3.03,3.54,3.57,3.57,2.63.1,5.6-3.57,5.94-3.57.51,0,3.03,3.55,3.57,3.57,2.39.09,4.06-3.56,4.75-3.57.53,0,4.22,4.75,4.75,4.75.57,0,4.09-4.68,4.75-4.75,2.27-.24,3.92,3.47,4.75,3.57,2.26.25,3.91-3.47,4.75-3.57,3.15-.37,1.73,3.93,5.94,3.57.3-.03,3.8-3.58,4.75-3.57.51,0,3.05,3.56,3.57,3.57,1.01.01,4.57-3.98,5.94-3.57.55.17,1.83,4.32,8.91,4.16-5.15,5.09,1.17,8.31,1.19,9.51.02,1.12-3.58,2.02-3.57,2.38.07,2.29,2.36,3.06,2.38,3.57.16,5.33-2.41,3.64-2.38,5.94.02,1.1,3.61,4.46,3.57,4.75-.18,1.31-3.57,1.96-3.57,2.38.04,3.21,3.64,6.7,3.57,7.13-.24,1.38-3.49,1.88-3.57,2.38-.54,3.76,3.46,4.96,3.57,5.94.53,4.73-3.17,2.18-3.57,3.57-.56,1.97,3.56,5.6,3.57,5.94.01.43-2.38,1.93-2.38,2.38-.01,4.07,4.11,15.74-1.19,15.45,1.46,3.01,3.59,12.27,3.57,15.45,0,1.17-3.51,1.95-3.57,2.38-.23,1.61,3.57,4.94,3.57,5.94,0,.89-3.56,11.8-3.57,13.07,0,.21,2.38,3.35,2.38,3.57,0,21.86-3.13,43.01,1.19,60.61-5.91,1.44,0,7.02,0,8.32,0,1.59-2.39,15.25-2.38,17.83.02,2.7,2.37,12.05,2.38,13.07,0,.44-2.38,1.93-2.38,2.38.02,3.59,2.37,4.4,2.38,4.75,0,.44-2.38,1.93-2.38,2.38.01,2.26,2.37,3.06,2.38,3.57,0,.44-2.38,1.94-2.38,2.38.03,4.58,2.37,5.62,2.38,5.94,0,1.39-2.39,13.98-2.38,16.64.02,4,5.44,6.35,0,8.32l2.38,15.45c-6.19,1.54,1.18,7.68,1.19,8.32.02,2.04-3.57.79-3.57,1.19.1,3.87,2.36,6.71,2.38,7.13.02.43-2.71,1.3-2.38,4.75.27,2.86,7.97,6.69,0,5.94Z"/><path class="cls-1" d="M648.26,218.95c-.54.11-2.34,2.17-1.78,2.97,2.86,4.1,8.42-4.32,1.78-2.97Z"/><path class="cls-1" d="M673.22,529.12c-.79.84.87,2.59,1.19,3.57,1.24-1.59,1-4.01-1.19-3.57Z"/><path class="cls-1" d="M525.26,242.12c-1.79-.34-3.85-1.67-5.35-1.78-16.31-1.22-39.52,2.54-56.45,2.97l58.82,1.78,2.97-2.97Z"/><path class="cls-1" d="M377.9,355.02c.03,2.72-2.1,16.97,1.78,16.04l-1.19-24.96c-5.63,1.81-.63,6.04-.59,8.91Z"/><path class="cls-1" d="M370.18,538.62c-.78,1.38-1.84,13.96-1.19,14.26,4.79,2.22,4.3-11.86,1.19-14.26Z"/><path class="cls-1" d="M526.45,244.5c.18.74,10.05-1.32,9.51-2.38-1.37-.5-2.73-1.83-4.16-1.78-.34.01-5.6,2.72-5.35,4.16Z"/><path class="cls-1" d="M369.59,503.57l-5.35-2.97c-3.31,1.53,4.99,4.34,5.35,2.97Z"/><path class="cls-1" d="M491.39,246.28c-.78.08-2.85,2.93-1.19,3.57,1.98-.61,4.93-3.97,1.19-3.57Z"/><path class="cls-1" d="M370.18,536.25c.66-1.67,2.94-3.83,0-3.57-1,.94-.93,2.83,0,3.57Z"/><path class="cls-1" d="M479.51,247.47l1.19,1.19c2.35.19,2.35-1.38,0-1.19h-1.19Z"/><polygon class="cls-1" points="468.81 248.66 470.6 246.88 468.81 246.28 468.22 248.06 468.81 248.66"/><path class="cls-1" d="M358.3,460.19v1.19l1.78,1.19c-.01-.6-.01-1.19-.02-1.79l-1.77-.59Z"/><path class="cls-1" d="M459.31,245.09c-2.52,1.42-21.61,1.74-19.01-2.38,3.85-1.69,12.32,1.67,15.45,1.19,3.31-.51,11.39-5.78,13.07-5.94,13.38-1.26,34.88-.72,49.91-1.19.94-.03,1.76,4.82,5.94-1.19l14.26,3.57c14.09-5.24,33.97-1.22,51.1-1.19-4.27-5.92-14.12-.56-21.39-3.57l4.75-4.75h67.74c-6.1-6.99-17.97-.8-25.55-5.35,7.89-6.73,22.23,2.57,29.71-4.75-6.42-5.44-10.31,1.98-11.29,1.78-1.86-.37,1.05-3.05,0-3.57-1.06-.52-15.15,1-17.83-2.38h-34.46c-.15-11.63,20.49,1.84,20.2-7.13l-34.46-1.19v-4.75l-125.97,3.57c1.96-9.18-5.16-2.92-7.13-3.57-.28-.09-3.27-4.7-3.57-4.75-7.3-1.45-25.42,2.26-33.27,2.38-7.88.12-20.81-4-28.52,1.19l-1.19-3.57c-4.58,8.07-6.67.99-15.45,0-22.61-2.55-57.47,4.27-80.81,3.57-.43-.01-5.79-4.68-7.13-4.75-6.32-.35-17.38.93-24.96,4.75-11.67,5.9-17.23,22.77-13.67,35.06,10.01,34.48,69.39,18.63,95.07,22.58-.68,1.01-2.38,6.75-2.38,7.13.82,46.55,4.29,91.59,4.75,135.47,0,.51,3.59,8.03,3.57,9.51-.02,1.06-3.6.14-3.57,1.19.03.91,2.34.28,2.38,1.19.12,2.8-2.95,9.29,1.19,13.07.7,8.83-2.45,19.05-2.38,27.33,0,.53,1.15,4.64,1.19,9.51,0,.89,2.37.3,2.38,1.19,0,.3-3.57,3.75-3.57,4.75.03,2.77,2.36,8.74,2.38,10.7.33,41.98-5.61,100.15,2.38,139.04.49,2.4-.34,9.44,1.19,11.88,1.19,1.91,5.37.26,5.94,2.38.92,3.41-1.2,19.58,3.57,26.14l5.35-13.67,1.19,14.26c2.68,1.05,8.14-22.59,7.72-25.55l3.57,1.19c1.05-1.78-3.11-25.8,3.57-23.17.14-3.59-1.46-10.79-1.19-11.29,1.88-3.48,4.08-.2,4.75-1.19.37-.54-.92-11.26-1.19-13.07-.12-.82,2.47-.36,2.38-1.19-.21-1.91-4.33-1.55-4.75-2.38-1.2-2.35,3.3-1.4,3.57-2.38.94-3.53-2.4-11.3-2.38-13.07.15-13.35,2.99-26.98,2.38-40.4-1.61-1.88-3.16,1.35-3.57,2.38-1.95,4.97,1.26,33.07-2.38,40.4h-3.57c-1.63-22.12-1.05-44.34-1.19-66.55,0-.27-2.38-4.49-2.38-4.75,0-2.74,2.37-1.42,2.38-2.38,0-.44-2.38-1.94-2.38-2.38.37-44.73,7.52-85.97,7.13-130.72,2.62-.77,2.18,2.21,2.38,3.57,2.22,15.27-1.2,34.15-1.19,48.72,0,.45,2.38,1.93,2.38,2.38,0,1.15-3.57,2-3.57,2.38s3.58,1.25,3.57,2.38c-.14,12.35-2.44,25.11-2.39,38.02h.02v1.79c.02,1.05,2.37,3.92,2.38,4.16.4,10.56-2.93,22.52.59,32.68,2.45.68.45-14.07.59-16.04.08-1,2.15.45,2.38-2.38.03-.39-2.41-2-2.38-2.38.49-5.3,1.61-13.65,2.38-19.01.28-1.98,7.2-1.63,0-4.75,7.81-2.24.96-9.9,1.19-13.07.13-1.86,3.28-.84,3.57-3.57.47-4.56-2.45-10.12-2.38-10.7.57-4.56,4.71-4.42,4.75-4.75.04-.32-2.55-4.52-2.38-5.94.08-.64,4.59-10.2,4.75-11.88,1.07-10.89-1.9-29.01-2.38-40.4-.11-2.68,2.42-1.45,2.38-2.38-.02-.48-2.35-1.9-2.38-2.38-.12-2.5-1.63-14.71-1.19-15.45.77-1.29,6.44,3.11,8.32-5.94.16-.79-2.48-.38-2.38-1.19,1.09-8.42-.29-14.82,0-20.2.39-7.23,3.27-19.57,3.57-27.33.41-10.97-.17-22.32-1.19-33.27,1.11-1.77,11.85,1.81,12.48,1.78.88-.04,1.64-2.36,1.78-2.38,1.22-.15,2.58,2.45,2.97,2.38,3.05-.57,2.75-3.49,2.97-3.57,4.06-1.4,5.74.23,8.32-1.78l-7.72-.59c-.73-6.93,13.21-1.09,15.45-1.19,4.89-.21,17.43-3.29,22.58-3.57,3.9-.21,19.29,5.73,20.2-2.38ZM605.48,217.76c3.65-2.11,5.3,4.7,1.19,3.57-.18-.05-1.96-3.12-1.19-3.57ZM337.5,483.36c-.3,1.19-1.14,4.74-2.97,4.16l2.38-91.51c5.14,1.41.56,7.26.59,7.72,1.19,16.1,3.54,65.74,0,79.62ZM341.66,539.81c-.84-1.29.46-1.43,1.19-2.38,1.47,2.18.47,4.91-1.19,2.38ZM344.63,553.48c-.04-.39,2.75-1.36,2.38-4.75-.06-.53-2.32-1.85-2.38-2.38-.09-.87,2.62.22,2.38-2.38-1-10.47-1.95-20.75-2.38-29.71-.08-1.67-4.74-8.98-4.75-9.51-.01-.35,3.58-1.25,3.57-2.38-.08-6.59-2.44-28.7-1.19-33.27.92-3.36,4.8-3.17,4.75-3.57-.14-1.14-3.27-.03-3.57-1.19-1.9-7.5.21-32.62,2.97-41l3.57,143.79c-1.82.99-5.28-12.87-5.35-13.67ZM396.32,248.66c3.06-1.62,3.43,2.12,1.19,2.38-.13.02-2.4-1.73-1.19-2.38Z"/><path class="cls-1" d="M361.3,612.35s-.02-.04-.03-.05c0,.01.01.03.03.05Z"/><path class="cls-1" d="M361.86,615.87c1.98-2.11-.26-3.23-.56-3.52.11.38-.52,2.85.56,3.52Z"/><path class="cls-1" d="M618.55,462.57c-.42.07-1.16,1.39-1.78,1.78,8.01,2.55,13.04,12.99,18.42,17.23.37.29,8.19,5.42,8.91,2.97-2.03-5-8.97-3.36-2.97-6.54l-4.75-4.75-2.38,4.75c-2.04-1.4-.4-5.16-.59-5.35-2.78-2.79-3.55.99-5.94-2.38l1.78-1.78c-3.88,1.18-8.28-6.35-10.7-5.94Z"/><path class="cls-1" d="M545.47,491.68c-8.74-4.61-20.51-4.08-29.71-6.54-10.42-2.78-20.27-7.94-30.9-10.1-1.63,3.72,28.41,10.67,30.9,11.29,9.62,2.41,19.68,5.45,29.71,5.35Z"/><path class="cls-1" d="M538.33,658.05l-25.55-2.97c6.62,3.65,18.15,5.36,25.55,2.97Z"/><path class="cls-1" d="M575.77,450.68c7.02-3.07,14.27,5.29,21.98,2.97-3.38-1.13-17.32-7.03-19.61-6.54-.55.12-4.4,2.06-2.38,3.57Z"/><path class="cls-1" d="M471.79,639.04c6.02,3.15,12.77,8.94,20.2,8.32l-18.42-10.1-1.78,1.78Z"/><path class="cls-1" d="M568.04,440.58l-18.42-2.97c3.26,2.85,14.01,6.15,18.42,2.97Z"/><path class="cls-1" d="M506.25,653.3l-11.29-5.35c-1.08,4.23,10.98,6.62,11.29,5.35Z"/><path class="cls-1" d="M474.76,473.26l7.72,1.78c.91-1.71-7.25-5.35-7.72-5.35-1.28,0-2.31,2.65,0,3.57Z"/><path class="cls-1" d="M475.35,465.54l-7.72-4.16c-2,3.17,7.41,5.06,7.72,4.16Z"/><path class="cls-1" d="M450.99,456.62c4.66-5.2-3.8-4.39-4.16-4.75.96,1.16,1.96,3.76,4.16,4.75Z"/><path class="cls-1" d="M443.26,448.9c.58,2.64,3.42,2.79,3.57,2.97-.32-.33,2.65-8.11-3.57-2.97Z"/><path class="cls-1" d="M457.53,459.6c.76-1.46-3.54-3.25-4.16-2.97-2.36,1.08,2.09,5.45,4.16,2.97Z"/><path class="cls-1" d="M461.68,464.94c2.5-.14,1.55-4.6-2.38-3.57-1.01.86,2.16,3.58,2.38,3.57Z"/><path class="cls-1" d="M572.8,447.71c.86-1.69-2.1-2.41-2.97-1.78-2.55,1.85,2.04,3.63,2.97,1.78Z"/><path class="cls-1" d="M644.69,487.52c-1.98,2.58,1.35,2.08,2.38,3.57,1.87-.81-.79-4.22-2.38-3.57Z"/><path class="cls-1" d="M440.29,443.55c-.17.01-2.41,1.76-1.19,2.38,6.65,1.1,2.75-2.51,1.19-2.38Z"/><path class="cls-1" d="M468.81,467.32c-1.21.64,1.06,2.39,1.19,2.38,2.24-.25,1.87-4-1.19-2.38Z"/><path class="cls-1" d="M560.32,443.55c-1.43.52-.55,3.14,1.19,2.38,1.43-.63.62-3.03-1.19-2.38Z"/><path class="cls-1" d="M556.75,443.55c-1.43.52-.55,3.14,1.19,2.38,1.43-.63.62-3.03-1.19-2.38Z"/><path class="cls-1" d="M547.25,441.18c-1.43.52-.55,3.14,1.19,2.38,1.43-.63.62-3.03-1.19-2.38Z"/><path class="cls-1" d="M467.63,633.69c-1.43.52-.55,3.14,1.19,2.38,1.43-.63.62-3.03-1.19-2.38Z"/><path class="cls-1" d="M509.22,652.71c-2.24.25-1.87,4,1.19,2.38,1.21-.64-1.06-2.39-1.19-2.38Z"/><path class="cls-1" d="M572.2,442.36c1.21-.64-1.06-2.39-1.19-2.38-2.24.25-1.87,4,1.19,2.38Z"/><path class="cls-1" d="M658.36,504.75c-.26-.42.51-9.2-4.16-6.54-3.01,1.72,9.95,14.78,5.94,19.01-7.78-17.78-28.51-40.22-45.16-49.91-14.19-8.27-31.5-12.24-46.94-14.26-1.76-2.97-.06-.93-2.38-2.38-4.22-2.64-20.76-3.86-26.74-7.13-.32-4.1,3.46-.25,4.75-1.19,3.71-2.68-23.03-3.57-20.2-9.51,4.79,1.53,15.79,5.9,20.2,5.94,1.8.02,5.46.78,3.57-2.38-25.77-6.55-75.97-24.29-55.26-58.82,26.57-44.31,96.32-35.66,121.81-2.97,4.18-3.84-6-7.79-7.72-11.29-.56-2.61,5.62,1.6,5.94,1.78-.3-1.13-2.03-5.32-.59-5.94l26.14,27.33c3.56-5.53-2.77-11.4-6.54-14.85.31-7.34,10.35,7.28,11.88,5.94-.79-8.02-4.33-11.93-9.51-17.83l9.51,3.57c-18.63-28.83-47.55-48.55-80.81-57.04,27.53,2.29,53.86,16.69,73.09,36.25-.71-3.28-5.86-11.9-7.72-14.26,1.06.73,13.75,10.7,11.88,4.16-4.74-3.52-7.93-8.81-12.48-12.48-5.12-4.12-13.35-3.53-13.07-11.88-4.14,2.27-3.77-2.84-8.32-5.94-.82-.56-15.55-9.01-16.64-9.51-15.91-7.18-37.06-7.38-53.48-5.94-.38.03-2.02-2.42-2.38-2.38-1.32.17-1.89,3.47-2.38,3.57-12.21,2.37-20.81,6.15-30.9,9.51-.39.13-.28-3.5-3.57-2.38-2.76.94-3.57,4.33-4.75,4.75-32.81,11.8-61.6,41.8-70.71,76.65-.73,2.79,6.13,2.96-2.38,5.94,8.06,1.99.02,2.43,0,5.94,0,.44,2.36,1.92,2.38,2.38.07,2.66-1.88,8.23-1.19,10.7.71,2.55,3.81-.18,4.75,2.38.55,1.49-1.76,2.11-1.19,3.57.24.61,3.52,3.76,3.57,4.75.08,1.88-11.95.24,2.38,7.13-3.12.56-4.84,4.72-3.57,7.13,2.61,4.93,10.4,5.4,10.7,5.94.43.78-7.09,3.42.59,8.91l2.38-7.13c3.87,5.24,10.21,13.15,15.45,16.64.5.33,8.22.03,10.1,4.16l-4.75,1.19c4.55,5.24,5.53-.2,11.29,1.78,4.12,1.42,16.07,11.59,22.58,14.26,8.39,3.44,18.42,4.77,26.74,7.13,7.8,2.21,13.66,3.23,21.39,4.75.18.04,1.61.81,3.57,1.19,2.9.56,19.88,6.46,20.2,1.19,9.04,2.87,31.05,9.63,35.65,18.42.6,1.15,2.41,4.45-.59,4.16-4.33-5.65-30.52-20.45-35.65-19.01-1.62.45,3.72,3.12,0,4.75l-11.29-1.78c46.75,9.71,83.61,55.38,33.87,92.1-31.11,22.96-67.42,15.39-97.45-7.13-3.74-2.81-18.98-22.21-20.2-21.39-1.44.96.25,3.79-1.19,4.75-1.5,1-5.6-8.27-4.75-10.7l-3.57,10.7c-7.02-3.73-8.53-15.5-11.29-19.61-2.49-3.71-8.68-.88-8.91-11.29-3.45,7.19.64,16.41,4.16,23.17-5.32.79-6.88-7.94-8.91-11.29-3.46,5.75,2.2,11.72,2.97,17.23l-4.16-2.97c-3.23,4.94,5.07,10.63,5.35,11.29,3.38,7.91,3.99,16,10.7,23.77l-12.48-12.48c-.91-2.04-2.97.03-2.97.59-.03,12.67,40.6,45.76,52.29,52.29-23.01-4.55-40.57-28.54-60.61-40.4,1.99,5.77,7.01,9.73,10.7,14.26,7.61,9.37,7.46,7.89,18.42,16.04,1.94,1.44-1.25,2.7,0,3.57,1.32.92,4.26-4.56,3.57,2.38,27.66,13.47,55.46,29.54,86.75,26.14,5.32,5.27-6.35,1.42-4.75,5.94l15.45-1.19-7.13-3.57,24.36-2.97-13.67,6.54c9.22-3.86,23.36-1.58,32.09-4.75,18.16-6.61,55.72-39.63,65.95-56.45,7.84-12.89,6.37-20.92,10.7-32.09.67-1.74,3.86-1.79,4.75-3.57h-4.75c5.09-21.52.41-38.76-10.7-57.04ZM601.32,311.64c.36.28,3.89-.53,1.78,2.38-2.47.58-1.65-2.31-1.78-2.38-.24-.19-7.89-1.62-1.78-2.38.72-.09,1.65,2.31,1.78,2.38ZM597.75,308.67l-58.82-16.04c20.41.38,42.61,2.2,58.82,16.04ZM535.96,294.41c-2.13,1.46-6.6,3.44-6.54-.59l6.54.59ZM429.6,426.92c-.35-.11-2.36-1.78-1.19-2.38,4.26-.65,5.41,3.72,1.19,2.38ZM470,573.09l-6.54-10.1,6.54,4.16,2.38-5.94c1.25.47,1.97,12.07-2.38,11.88ZM505.06,434.64l-.59,1.78-.59-.59-.59-1.78,1.78.59ZM467.63,449.49c2.02-.35,2.96.24,4.16,1.78-.46,1.31-5.04-.47-4.16-1.78ZM560.32,480.39l.21.24c-.09-.08-.17-.16-.21-.24ZM644.69,511.29l-2.38-4.75c2.4-.65,4.2,4.06,2.38,4.75ZM662.52,523.17l-.59-.59,1.78-1.78.59,1.78-1.78.59Z"/><path class="cls-1" d="M613.8,367.5c2.2-2.86-1.75-2.23-1.78-2.38.13.07-.68,2.95,1.78,2.38Z"/></svg>